G04 Generated by Ultiboard 13.0 *
%FSLAX34Y34*%
%MOMM*%

%ADD10C,0.0001*%
%ADD11C,0.1000*%
%ADD12C,0.0100*%
%ADD13C,0.0010*%
%ADD14C,0.2032*%


G04 ColorRGB 000000 for the following layer *
%LNDrill Symbols-Copper Top-Copper Bottom*%
%LPD*%
G54D11*
X35000Y95000D02*
X65000Y95000D01*
X50000Y80000D02*
X50000Y110000D01*
X595000Y95000D02*
X625000Y95000D01*
X610000Y80000D02*
X610000Y110000D01*
X941850Y-66150D02*
X971850Y-66150D01*
X956850Y-81150D02*
X956850Y-51150D01*
X1064517Y-55436D02*
X1067850Y-53293D01*
X1074517Y-53293D01*
X1081183Y-57579D01*
X1081183Y-61864D01*
X1077850Y-64007D01*
X1081183Y-66150D01*
X1081183Y-70436D01*
X1074517Y-74721D01*
X1067850Y-74721D01*
X1064517Y-72579D01*
X1067850Y-64007D02*
X1077850Y-64007D01*
X1101183Y-74721D02*
X1101183Y-72579D01*
X1121183Y-57579D02*
X1127850Y-53293D01*
X1134517Y-53293D01*
X1141183Y-57579D01*
X1141183Y-70436D01*
X1134517Y-74721D01*
X1127850Y-74721D01*
X1121183Y-70436D01*
X1121183Y-57579D01*
X1141183Y-57579D02*
X1121183Y-70436D01*
X1151183Y-57579D02*
X1157850Y-53293D01*
X1164517Y-53293D01*
X1171183Y-57579D01*
X1171183Y-70436D01*
X1164517Y-74721D01*
X1157850Y-74721D01*
X1151183Y-70436D01*
X1151183Y-57579D01*
X1171183Y-57579D02*
X1151183Y-70436D01*
X1181183Y-57579D02*
X1187850Y-53293D01*
X1194517Y-53293D01*
X1201183Y-57579D01*
X1201183Y-70436D01*
X1194517Y-74721D01*
X1187850Y-74721D01*
X1181183Y-70436D01*
X1181183Y-57579D01*
X1201183Y-57579D02*
X1181183Y-70436D01*
X1211183Y-57579D02*
X1217850Y-53293D01*
X1224517Y-53293D01*
X1231183Y-57579D01*
X1231183Y-70436D01*
X1224517Y-74721D01*
X1217850Y-74721D01*
X1211183Y-70436D01*
X1211183Y-57579D01*
X1231183Y-57579D02*
X1211183Y-70436D01*
X1357183Y-57579D02*
X1363850Y-53293D01*
X1370517Y-53293D01*
X1377183Y-57579D01*
X1377183Y-59721D01*
X1357183Y-74721D01*
X1377183Y-74721D01*
X1377183Y-72579D01*
X1533183Y-74721D02*
X1533183Y-53293D01*
X1553183Y-74721D01*
X1553183Y-53293D01*
X1563183Y-74721D02*
X1563183Y-53293D01*
X1576517Y-53293D01*
X1583183Y-57579D01*
X1583183Y-59721D01*
X1576517Y-64007D01*
X1563183Y-64007D01*
X1603183Y-74721D02*
X1603183Y-53293D01*
X1593183Y-53293D02*
X1613183Y-53293D01*
X1623183Y-74721D02*
X1623183Y-53293D01*
X1643183Y-74721D02*
X1643183Y-53293D01*
X1623183Y-64007D02*
X1643183Y-64007D01*
X1724183Y-57579D02*
X1730850Y-53293D01*
X1737517Y-53293D01*
X1744183Y-57579D01*
X1744183Y-70436D01*
X1737517Y-74721D01*
X1730850Y-74721D01*
X1724183Y-70436D01*
X1724183Y-57579D01*
X1744183Y-57579D02*
X1724183Y-70436D01*
X1800850Y-74721D02*
X1797517Y-74721D01*
X1790850Y-70436D01*
X1790850Y-57579D01*
X1797517Y-53293D01*
X1800850Y-53293D01*
X1814183Y-74721D02*
X1814183Y-53293D01*
X1827517Y-53293D01*
X1834183Y-57579D01*
X1834183Y-59721D01*
X1827517Y-64007D01*
X1814183Y-64007D01*
X1817517Y-64007D02*
X1834183Y-74721D01*
X1844183Y-70436D02*
X1850850Y-74721D01*
X1857517Y-74721D01*
X1864183Y-70436D01*
X1864183Y-57579D01*
X1857517Y-53293D01*
X1850850Y-53293D01*
X1844183Y-57579D01*
X1844183Y-70436D01*
X1874183Y-53293D02*
X1874183Y-70436D01*
X1880850Y-74721D01*
X1887517Y-74721D01*
X1894183Y-70436D01*
X1894183Y-53293D01*
X1904183Y-74721D02*
X1904183Y-53293D01*
X1924183Y-74721D01*
X1924183Y-53293D01*
X1934183Y-74721D02*
X1947517Y-74721D01*
X1954183Y-70436D01*
X1954183Y-57579D01*
X1947517Y-53293D01*
X1934183Y-53293D01*
X1937517Y-53293D02*
X1937517Y-74721D01*
X1967517Y-53293D02*
X1970850Y-53293D01*
X1977517Y-57579D01*
X1977517Y-70436D01*
X1970850Y-74721D01*
X1967517Y-74721D01*
X1061183Y-16579D02*
X1067850Y-12293D01*
X1074517Y-12293D01*
X1081183Y-16579D01*
X1081183Y-29436D01*
X1074517Y-33721D01*
X1067850Y-33721D01*
X1061183Y-29436D01*
X1061183Y-16579D01*
X1081183Y-16579D02*
X1061183Y-29436D01*
X1101183Y-33721D02*
X1101183Y-31579D01*
X1121183Y-29436D02*
X1127850Y-33721D01*
X1134517Y-33721D01*
X1141183Y-29436D01*
X1141183Y-20864D01*
X1141183Y-16579D01*
X1134517Y-12293D01*
X1127850Y-12293D01*
X1121183Y-16579D01*
X1121183Y-20864D01*
X1127850Y-25150D01*
X1134517Y-25150D01*
X1141183Y-20864D01*
X1151183Y-29436D02*
X1157850Y-33721D01*
X1164517Y-33721D01*
X1171183Y-29436D01*
X1171183Y-20864D01*
X1171183Y-16579D01*
X1164517Y-12293D01*
X1157850Y-12293D01*
X1151183Y-16579D01*
X1151183Y-20864D01*
X1157850Y-25150D01*
X1164517Y-25150D01*
X1171183Y-20864D01*
X1201183Y-25150D02*
X1181183Y-25150D01*
X1197850Y-12293D01*
X1197850Y-33721D01*
X1194517Y-33721D02*
X1201183Y-33721D01*
X1211183Y-29436D02*
X1217850Y-33721D01*
X1224517Y-33721D01*
X1231183Y-29436D01*
X1231183Y-20864D01*
X1231183Y-16579D01*
X1224517Y-12293D01*
X1217850Y-12293D01*
X1211183Y-16579D01*
X1211183Y-20864D01*
X1217850Y-25150D01*
X1224517Y-25150D01*
X1231183Y-20864D01*
X1360517Y-16579D02*
X1367183Y-12293D01*
X1367183Y-33721D01*
X1357183Y-33721D02*
X1377183Y-33721D01*
X1548183Y-33721D02*
X1548183Y-12293D01*
X1561517Y-12293D01*
X1568183Y-16579D01*
X1568183Y-18721D01*
X1561517Y-23007D01*
X1548183Y-23007D01*
X1588183Y-33721D02*
X1588183Y-12293D01*
X1578183Y-12293D02*
X1598183Y-12293D01*
X1608183Y-33721D02*
X1608183Y-12293D01*
X1628183Y-33721D02*
X1628183Y-12293D01*
X1608183Y-23007D02*
X1628183Y-23007D01*
X1724183Y-16579D02*
X1730850Y-12293D01*
X1737517Y-12293D01*
X1744183Y-16579D01*
X1744183Y-29436D01*
X1737517Y-33721D01*
X1730850Y-33721D01*
X1724183Y-29436D01*
X1724183Y-16579D01*
X1744183Y-16579D02*
X1724183Y-29436D01*
X1800850Y-33721D02*
X1797517Y-33721D01*
X1790850Y-29436D01*
X1790850Y-16579D01*
X1797517Y-12293D01*
X1800850Y-12293D01*
X1814183Y-33721D02*
X1814183Y-12293D01*
X1827517Y-12293D01*
X1834183Y-16579D01*
X1834183Y-18721D01*
X1827517Y-23007D01*
X1814183Y-23007D01*
X1817517Y-23007D02*
X1834183Y-33721D01*
X1844183Y-29436D02*
X1850850Y-33721D01*
X1857517Y-33721D01*
X1864183Y-29436D01*
X1864183Y-16579D01*
X1857517Y-12293D01*
X1850850Y-12293D01*
X1844183Y-16579D01*
X1844183Y-29436D01*
X1874183Y-12293D02*
X1874183Y-29436D01*
X1880850Y-33721D01*
X1887517Y-33721D01*
X1894183Y-29436D01*
X1894183Y-12293D01*
X1904183Y-33721D02*
X1904183Y-12293D01*
X1924183Y-33721D01*
X1924183Y-12293D01*
X1934183Y-33721D02*
X1947517Y-33721D01*
X1954183Y-29436D01*
X1954183Y-16579D01*
X1947517Y-12293D01*
X1934183Y-12293D01*
X1937517Y-12293D02*
X1937517Y-33721D01*
X1967517Y-12293D02*
X1970850Y-12293D01*
X1977517Y-16579D01*
X1977517Y-29436D01*
X1970850Y-33721D01*
X1967517Y-33721D01*
X1061183Y24421D02*
X1067850Y28707D01*
X1074517Y28707D01*
X1081183Y24421D01*
X1081183Y11564D01*
X1074517Y7279D01*
X1067850Y7279D01*
X1061183Y11564D01*
X1061183Y24421D01*
X1081183Y24421D02*
X1061183Y11564D01*
X1101183Y7279D02*
X1101183Y9421D01*
X1121183Y11564D02*
X1127850Y7279D01*
X1134517Y7279D01*
X1141183Y11564D01*
X1141183Y20136D01*
X1141183Y24421D01*
X1134517Y28707D01*
X1127850Y28707D01*
X1121183Y24421D01*
X1121183Y20136D01*
X1127850Y15850D01*
X1134517Y15850D01*
X1141183Y20136D01*
X1151183Y24421D02*
X1157850Y28707D01*
X1164517Y28707D01*
X1171183Y24421D01*
X1171183Y11564D01*
X1164517Y7279D01*
X1157850Y7279D01*
X1151183Y11564D01*
X1151183Y24421D01*
X1171183Y24421D02*
X1151183Y11564D01*
X1181183Y24421D02*
X1187850Y28707D01*
X1194517Y28707D01*
X1201183Y24421D01*
X1201183Y11564D01*
X1194517Y7279D01*
X1187850Y7279D01*
X1181183Y11564D01*
X1181183Y24421D01*
X1201183Y24421D02*
X1181183Y11564D01*
X1211183Y24421D02*
X1217850Y28707D01*
X1224517Y28707D01*
X1231183Y24421D01*
X1231183Y11564D01*
X1224517Y7279D01*
X1217850Y7279D01*
X1211183Y11564D01*
X1211183Y24421D01*
X1231183Y24421D02*
X1211183Y11564D01*
X1345517Y24421D02*
X1352183Y28707D01*
X1352183Y7279D01*
X1342183Y7279D02*
X1362183Y7279D01*
X1392183Y15850D02*
X1372183Y15850D01*
X1388850Y28707D01*
X1388850Y7279D01*
X1385517Y7279D02*
X1392183Y7279D01*
X1548183Y7279D02*
X1548183Y28707D01*
X1561517Y28707D01*
X1568183Y24421D01*
X1568183Y22279D01*
X1561517Y17993D01*
X1548183Y17993D01*
X1588183Y7279D02*
X1588183Y28707D01*
X1578183Y28707D02*
X1598183Y28707D01*
X1608183Y7279D02*
X1608183Y28707D01*
X1628183Y7279D02*
X1628183Y28707D01*
X1608183Y17993D02*
X1628183Y17993D01*
X1724183Y24421D02*
X1730850Y28707D01*
X1737517Y28707D01*
X1744183Y24421D01*
X1744183Y11564D01*
X1737517Y7279D01*
X1730850Y7279D01*
X1724183Y11564D01*
X1724183Y24421D01*
X1744183Y24421D02*
X1724183Y11564D01*
X1800850Y7279D02*
X1797517Y7279D01*
X1790850Y11564D01*
X1790850Y24421D01*
X1797517Y28707D01*
X1800850Y28707D01*
X1814183Y7279D02*
X1814183Y28707D01*
X1827517Y28707D01*
X1834183Y24421D01*
X1834183Y22279D01*
X1827517Y17993D01*
X1814183Y17993D01*
X1817517Y17993D02*
X1834183Y7279D01*
X1844183Y11564D02*
X1850850Y7279D01*
X1857517Y7279D01*
X1864183Y11564D01*
X1864183Y24421D01*
X1857517Y28707D01*
X1850850Y28707D01*
X1844183Y24421D01*
X1844183Y11564D01*
X1874183Y28707D02*
X1874183Y11564D01*
X1880850Y7279D01*
X1887517Y7279D01*
X1894183Y11564D01*
X1894183Y28707D01*
X1904183Y7279D02*
X1904183Y28707D01*
X1924183Y7279D01*
X1924183Y28707D01*
X1934183Y7279D02*
X1947517Y7279D01*
X1954183Y11564D01*
X1954183Y24421D01*
X1947517Y28707D01*
X1934183Y28707D01*
X1937517Y28707D02*
X1937517Y7279D01*
X1967517Y28707D02*
X1970850Y28707D01*
X1977517Y24421D01*
X1977517Y11564D01*
X1970850Y7279D01*
X1967517Y7279D01*
X1061183Y65421D02*
X1067850Y69707D01*
X1074517Y69707D01*
X1081183Y65421D01*
X1081183Y52564D01*
X1074517Y48279D01*
X1067850Y48279D01*
X1061183Y52564D01*
X1061183Y65421D01*
X1081183Y65421D02*
X1061183Y52564D01*
X1101183Y48279D02*
X1101183Y50421D01*
X1134517Y48279D02*
X1127850Y48279D01*
X1121183Y52564D01*
X1121183Y56850D01*
X1124517Y58993D01*
X1121183Y61136D01*
X1121183Y65421D01*
X1127850Y69707D01*
X1134517Y69707D01*
X1141183Y65421D01*
X1141183Y61136D01*
X1137850Y58993D01*
X1141183Y56850D01*
X1141183Y52564D01*
X1134517Y48279D01*
X1124517Y58993D02*
X1137850Y58993D01*
X1164517Y48279D02*
X1157850Y48279D01*
X1151183Y52564D01*
X1151183Y56850D01*
X1154517Y58993D01*
X1151183Y61136D01*
X1151183Y65421D01*
X1157850Y69707D01*
X1164517Y69707D01*
X1171183Y65421D01*
X1171183Y61136D01*
X1167850Y58993D01*
X1171183Y56850D01*
X1171183Y52564D01*
X1164517Y48279D01*
X1154517Y58993D02*
X1167850Y58993D01*
X1181183Y52564D02*
X1187850Y48279D01*
X1194517Y48279D01*
X1201183Y52564D01*
X1201183Y61136D01*
X1201183Y65421D01*
X1194517Y69707D01*
X1187850Y69707D01*
X1181183Y65421D01*
X1181183Y61136D01*
X1187850Y56850D01*
X1194517Y56850D01*
X1201183Y61136D01*
X1211183Y65421D02*
X1217850Y69707D01*
X1224517Y69707D01*
X1231183Y65421D01*
X1231183Y52564D01*
X1224517Y48279D01*
X1217850Y48279D01*
X1211183Y52564D01*
X1211183Y65421D01*
X1231183Y65421D02*
X1211183Y52564D01*
X1342183Y65421D02*
X1348850Y69707D01*
X1355517Y69707D01*
X1362183Y65421D01*
X1362183Y63279D01*
X1342183Y48279D01*
X1362183Y48279D01*
X1362183Y50421D01*
X1388850Y69707D02*
X1378850Y69707D01*
X1372183Y65421D01*
X1372183Y56850D01*
X1372183Y52564D01*
X1378850Y48279D01*
X1385517Y48279D01*
X1392183Y52564D01*
X1392183Y56850D01*
X1385517Y61136D01*
X1378850Y61136D01*
X1372183Y56850D01*
X1548183Y48279D02*
X1548183Y69707D01*
X1561517Y69707D01*
X1568183Y65421D01*
X1568183Y63279D01*
X1561517Y58993D01*
X1548183Y58993D01*
X1588183Y48279D02*
X1588183Y69707D01*
X1578183Y69707D02*
X1598183Y69707D01*
X1608183Y48279D02*
X1608183Y69707D01*
X1628183Y48279D02*
X1628183Y69707D01*
X1608183Y58993D02*
X1628183Y58993D01*
X1724183Y65421D02*
X1730850Y69707D01*
X1737517Y69707D01*
X1744183Y65421D01*
X1744183Y52564D01*
X1737517Y48279D01*
X1730850Y48279D01*
X1724183Y52564D01*
X1724183Y65421D01*
X1744183Y65421D02*
X1724183Y52564D01*
X1800850Y48279D02*
X1797517Y48279D01*
X1790850Y52564D01*
X1790850Y65421D01*
X1797517Y69707D01*
X1800850Y69707D01*
X1814183Y48279D02*
X1814183Y69707D01*
X1827517Y69707D01*
X1834183Y65421D01*
X1834183Y63279D01*
X1827517Y58993D01*
X1814183Y58993D01*
X1817517Y58993D02*
X1834183Y48279D01*
X1844183Y52564D02*
X1850850Y48279D01*
X1857517Y48279D01*
X1864183Y52564D01*
X1864183Y65421D01*
X1857517Y69707D01*
X1850850Y69707D01*
X1844183Y65421D01*
X1844183Y52564D01*
X1874183Y69707D02*
X1874183Y52564D01*
X1880850Y48279D01*
X1887517Y48279D01*
X1894183Y52564D01*
X1894183Y69707D01*
X1904183Y48279D02*
X1904183Y69707D01*
X1924183Y48279D01*
X1924183Y69707D01*
X1934183Y48279D02*
X1947517Y48279D01*
X1954183Y52564D01*
X1954183Y65421D01*
X1947517Y69707D01*
X1934183Y69707D01*
X1937517Y69707D02*
X1937517Y48279D01*
X1967517Y69707D02*
X1970850Y69707D01*
X1977517Y65421D01*
X1977517Y52564D01*
X1970850Y48279D01*
X1967517Y48279D01*
X1061183Y106421D02*
X1067850Y110707D01*
X1074517Y110707D01*
X1081183Y106421D01*
X1081183Y93564D01*
X1074517Y89279D01*
X1067850Y89279D01*
X1061183Y93564D01*
X1061183Y106421D01*
X1081183Y106421D02*
X1061183Y93564D01*
X1101183Y89279D02*
X1101183Y91421D01*
X1134517Y89279D02*
X1127850Y89279D01*
X1121183Y93564D01*
X1121183Y97850D01*
X1124517Y99993D01*
X1121183Y102136D01*
X1121183Y106421D01*
X1127850Y110707D01*
X1134517Y110707D01*
X1141183Y106421D01*
X1141183Y102136D01*
X1137850Y99993D01*
X1141183Y97850D01*
X1141183Y93564D01*
X1134517Y89279D01*
X1124517Y99993D02*
X1137850Y99993D01*
X1151183Y106421D02*
X1157850Y110707D01*
X1164517Y110707D01*
X1171183Y106421D01*
X1171183Y93564D01*
X1164517Y89279D01*
X1157850Y89279D01*
X1151183Y93564D01*
X1151183Y106421D01*
X1171183Y106421D02*
X1151183Y93564D01*
X1181183Y106421D02*
X1187850Y110707D01*
X1194517Y110707D01*
X1201183Y106421D01*
X1201183Y93564D01*
X1194517Y89279D01*
X1187850Y89279D01*
X1181183Y93564D01*
X1181183Y106421D01*
X1201183Y106421D02*
X1181183Y93564D01*
X1211183Y106421D02*
X1217850Y110707D01*
X1224517Y110707D01*
X1231183Y106421D01*
X1231183Y93564D01*
X1224517Y89279D01*
X1217850Y89279D01*
X1211183Y93564D01*
X1211183Y106421D01*
X1231183Y106421D02*
X1211183Y93564D01*
X1357183Y106421D02*
X1363850Y110707D01*
X1370517Y110707D01*
X1377183Y106421D01*
X1377183Y104279D01*
X1357183Y89279D01*
X1377183Y89279D01*
X1377183Y91421D01*
X1548183Y89279D02*
X1548183Y110707D01*
X1561517Y110707D01*
X1568183Y106421D01*
X1568183Y104279D01*
X1561517Y99993D01*
X1548183Y99993D01*
X1588183Y89279D02*
X1588183Y110707D01*
X1578183Y110707D02*
X1598183Y110707D01*
X1608183Y89279D02*
X1608183Y110707D01*
X1628183Y89279D02*
X1628183Y110707D01*
X1608183Y99993D02*
X1628183Y99993D01*
X1724183Y106421D02*
X1730850Y110707D01*
X1737517Y110707D01*
X1744183Y106421D01*
X1744183Y93564D01*
X1737517Y89279D01*
X1730850Y89279D01*
X1724183Y93564D01*
X1724183Y106421D01*
X1744183Y106421D02*
X1724183Y93564D01*
X1800850Y89279D02*
X1797517Y89279D01*
X1790850Y93564D01*
X1790850Y106421D01*
X1797517Y110707D01*
X1800850Y110707D01*
X1814183Y89279D02*
X1814183Y110707D01*
X1827517Y110707D01*
X1834183Y106421D01*
X1834183Y104279D01*
X1827517Y99993D01*
X1814183Y99993D01*
X1817517Y99993D02*
X1834183Y89279D01*
X1844183Y93564D02*
X1850850Y89279D01*
X1857517Y89279D01*
X1864183Y93564D01*
X1864183Y106421D01*
X1857517Y110707D01*
X1850850Y110707D01*
X1844183Y106421D01*
X1844183Y93564D01*
X1874183Y110707D02*
X1874183Y93564D01*
X1880850Y89279D01*
X1887517Y89279D01*
X1894183Y93564D01*
X1894183Y110707D01*
X1904183Y89279D02*
X1904183Y110707D01*
X1924183Y89279D01*
X1924183Y110707D01*
X1934183Y89279D02*
X1947517Y89279D01*
X1954183Y93564D01*
X1954183Y106421D01*
X1947517Y110707D01*
X1934183Y110707D01*
X1937517Y110707D02*
X1937517Y89279D01*
X1967517Y110707D02*
X1970850Y110707D01*
X1977517Y106421D01*
X1977517Y93564D01*
X1970850Y89279D01*
X1967517Y89279D01*
G54D12*
X302078Y211462D02*
X308442Y205098D01*
X302078Y205098D02*
X308442Y211462D01*
X172078Y211462D02*
X178442Y205098D01*
X172078Y205098D02*
X178442Y211462D01*
X147138Y23502D02*
X153502Y17138D01*
X147138Y17138D02*
X153502Y23502D01*
X17138Y23502D02*
X23502Y17138D01*
X17138Y17138D02*
X23502Y23502D01*
X476878Y23802D02*
X483242Y17438D01*
X476878Y17438D02*
X483242Y23802D01*
X606878Y17438D02*
X613242Y23802D01*
X606878Y23802D02*
X613242Y17438D01*
X346628Y76893D02*
G75*
D01*
G02X346628Y76893I4445J0*
G01*
X301755Y76893D02*
G75*
D01*
G02X301755Y76893I4445J0*
G01*
X346628Y11700D02*
G75*
D01*
G02X346628Y11700I4445J0*
G01*
X301755Y11700D02*
G75*
D01*
G02X301755Y11700I4445J0*
G01*
X276218Y24298D02*
X282582Y30662D01*
X276218Y30662D02*
X282582Y24298D01*
X276218Y154298D02*
X282582Y160662D01*
X276218Y160662D02*
X282582Y154298D01*
X346628Y178493D02*
G75*
D01*
G02X346628Y178493I4445J0*
G01*
X301755Y178493D02*
G75*
D01*
G02X301755Y178493I4445J0*
G01*
X346628Y113300D02*
G75*
D01*
G02X346628Y113300I4445J0*
G01*
X301755Y113300D02*
G75*
D01*
G02X301755Y113300I4445J0*
G01*
X143428Y127693D02*
G75*
D01*
G02X143428Y127693I4445J0*
G01*
X98555Y127693D02*
G75*
D01*
G02X98555Y127693I4445J0*
G01*
X143428Y62500D02*
G75*
D01*
G02X143428Y62500I4445J0*
G01*
X98555Y62500D02*
G75*
D01*
G02X98555Y62500I4445J0*
G01*
X60071Y175260D02*
G75*
D01*
G02X60071Y175260I4445J0*
G01*
X59541Y144885D02*
X69491Y144885D01*
X69491Y154835D01*
X59541Y154835D01*
X59541Y144885D01*
X60071Y200660D02*
G75*
D01*
G02X60071Y200660I4445J0*
G01*
X112300Y153863D02*
X117957Y159520D01*
X112300Y165177D01*
X106643Y159520D01*
X112300Y153863D01*
X112300Y178863D02*
X117957Y184520D01*
X112300Y190177D01*
X106643Y184520D01*
X112300Y178863D01*
X245028Y126153D02*
G75*
D01*
G02X245028Y126153I4445J0*
G01*
X200155Y126153D02*
G75*
D01*
G02X200155Y126153I4445J0*
G01*
X245028Y60960D02*
G75*
D01*
G02X245028Y60960I4445J0*
G01*
X200155Y60960D02*
G75*
D01*
G02X200155Y60960I4445J0*
G01*
X172078Y40822D02*
X178442Y34458D01*
X172078Y34458D02*
X178442Y40822D01*
X172078Y170822D02*
X178442Y164458D01*
X172078Y164458D02*
X178442Y170822D01*
X448228Y127693D02*
G75*
D01*
G02X448228Y127693I4445J0*
G01*
X403355Y127693D02*
G75*
D01*
G02X403355Y127693I4445J0*
G01*
X448228Y62500D02*
G75*
D01*
G02X448228Y62500I4445J0*
G01*
X403355Y62500D02*
G75*
D01*
G02X403355Y62500I4445J0*
G01*
X375278Y75098D02*
X381642Y81462D01*
X375278Y81462D02*
X381642Y75098D01*
X375278Y211462D02*
X381642Y205098D01*
X375278Y205098D02*
X381642Y211462D01*
X542918Y170522D02*
X549282Y164158D01*
X542918Y164158D02*
X549282Y170522D01*
X412918Y164158D02*
X419282Y170522D01*
X412918Y170522D02*
X419282Y164158D01*
X549828Y127693D02*
G75*
D01*
G02X549828Y127693I4445J0*
G01*
X504955Y127693D02*
G75*
D01*
G02X504955Y127693I4445J0*
G01*
X549828Y62500D02*
G75*
D01*
G02X549828Y62500I4445J0*
G01*
X504955Y62500D02*
G75*
D01*
G02X504955Y62500I4445J0*
G01*
X951875Y-30125D02*
X961825Y-30125D01*
X961825Y-20175D01*
X951875Y-20175D01*
X951875Y-30125D01*
X953668Y19032D02*
X960032Y12668D01*
X953668Y12668D02*
X960032Y19032D01*
X952405Y56850D02*
G75*
D01*
G02X952405Y56850I4445J0*
G01*
X956850Y92193D02*
X962507Y97850D01*
X956850Y103507D01*
X951193Y97850D01*
X956850Y92193D01*
G04 ColorRGB 00FFFF for the following layer *
%LNBoard Outline*%
%LPD*%
G54D10*
G54D13*
X0Y0D02*
X650000Y0D01*
X650000Y230000D01*
X0Y230000D01*
X0Y0D01*
G54D14*
X-6350Y-6350D02*
X-6350Y17920D01*
X-6350Y-6350D02*
X59920Y-6350D01*
X656350Y-6350D02*
X590080Y-6350D01*
X656350Y-6350D02*
X656350Y17920D01*
X656350Y236350D02*
X656350Y212080D01*
X656350Y236350D02*
X590080Y236350D01*
X-6350Y236350D02*
X59920Y236350D01*
X-6350Y236350D02*
X-6350Y212080D01*
X-56350Y-6350D02*
X-156350Y-6350D01*
X-106350Y-56350D02*
X-106350Y43650D01*
X-143850Y-6350D02*
G75*
D01*
G02X-143850Y-6350I37500J0*
G01*
X706350Y-6350D02*
X806350Y-6350D01*
X756350Y-56350D02*
X756350Y43650D01*
X718850Y-6350D02*
G75*
D01*
G02X718850Y-6350I37500J0*
G01*
X743850Y-6350D02*
G75*
D01*
G02X743850Y-6350I12500J0*
G01*
X-56350Y236350D02*
X-156350Y236350D01*
X-106350Y186350D02*
X-106350Y286350D01*
X-143850Y236350D02*
G75*
D01*
G02X-143850Y236350I37500J0*
G01*
X-131350Y236350D02*
G75*
D01*
G02X-131350Y236350I25000J0*
G01*
X-118850Y236350D02*
G75*
D01*
G02X-118850Y236350I12500J0*
G01*
G04 ColorRGB 66FFCC for the following layer *
%LNLegend Description*%
%LPD*%
G54D11*
X861350Y-86650D02*
X2026350Y-86650D01*
X2026350Y241350D01*
X861350Y241350D01*
X861350Y-86650D01*
X1052350Y159350D02*
X1052350Y-86650D01*
X1243350Y159350D02*
X1243350Y-86650D01*
X1494350Y159350D02*
X1494350Y-86650D01*
X1685350Y159350D02*
X1685350Y-86650D01*
X2026350Y159350D02*
X2026350Y-86650D01*
X861350Y-45650D02*
X2026350Y-45650D01*
X861350Y-4650D02*
X2026350Y-4650D01*
X861350Y36350D02*
X2026350Y36350D01*
X861350Y77350D02*
X2026350Y77350D01*
X861350Y118350D02*
X2026350Y118350D01*
X870183Y134564D02*
X876850Y130279D01*
X883517Y130279D01*
X890183Y134564D01*
X870183Y147421D01*
X876850Y151707D01*
X883517Y151707D01*
X890183Y147421D01*
X900183Y123850D02*
X903517Y123850D01*
X920183Y145279D01*
X900183Y145279D02*
X910183Y132421D01*
X930183Y130279D02*
X930183Y143136D01*
X930183Y145279D01*
X930183Y143136D02*
X933517Y145279D01*
X936850Y145279D01*
X940183Y143136D01*
X943517Y145279D01*
X946850Y145279D01*
X950183Y143136D01*
X950183Y130279D01*
X940183Y143136D02*
X940183Y130279D01*
X960183Y134564D02*
X966850Y130279D01*
X973517Y130279D01*
X980183Y134564D01*
X980183Y138850D01*
X973517Y143136D01*
X966850Y143136D01*
X960183Y138850D01*
X960183Y151707D02*
X960183Y130279D01*
X990183Y134564D02*
X996850Y130279D01*
X1003517Y130279D01*
X1010183Y134564D01*
X1010183Y140993D01*
X1003517Y145279D01*
X996850Y145279D01*
X990183Y140993D01*
X990183Y134564D01*
X1023517Y151707D02*
X1023517Y134564D01*
X1030183Y130279D01*
X1091183Y134564D02*
X1097850Y130279D01*
X1104517Y130279D01*
X1111183Y134564D01*
X1091183Y147421D01*
X1097850Y151707D01*
X1104517Y151707D01*
X1111183Y147421D01*
X1131183Y130279D02*
X1131183Y143136D01*
X1131183Y147421D02*
X1131183Y149564D01*
X1151183Y145279D02*
X1171183Y145279D01*
X1151183Y130279D01*
X1171183Y130279D01*
X1201183Y134564D02*
X1194517Y130279D01*
X1187850Y130279D01*
X1181183Y134564D01*
X1181183Y140993D01*
X1187850Y145279D01*
X1194517Y145279D01*
X1201183Y140993D01*
X1197850Y138850D01*
X1181183Y138850D01*
X1252183Y134564D02*
X1258850Y130279D01*
X1265517Y130279D01*
X1272183Y134564D01*
X1272183Y147421D01*
X1265517Y151707D01*
X1258850Y151707D01*
X1252183Y147421D01*
X1252183Y134564D01*
X1265517Y134564D02*
X1272183Y130279D01*
X1282183Y145279D02*
X1282183Y134564D01*
X1288850Y130279D01*
X1295517Y130279D01*
X1302183Y134564D01*
X1302183Y145279D01*
X1302183Y134564D02*
X1302183Y130279D01*
X1315517Y145279D02*
X1325517Y145279D01*
X1328850Y143136D01*
X1328850Y132421D01*
X1325517Y130279D01*
X1315517Y130279D01*
X1312183Y132421D01*
X1312183Y136707D01*
X1315517Y138850D01*
X1328850Y138850D01*
X1328850Y132421D02*
X1332183Y130279D01*
X1342183Y130279D02*
X1342183Y143136D01*
X1342183Y145279D01*
X1342183Y143136D02*
X1345517Y145279D01*
X1352183Y145279D01*
X1355517Y143136D01*
X1355517Y130279D01*
X1388850Y132421D02*
X1385517Y130279D01*
X1382183Y132421D01*
X1382183Y151707D01*
X1375517Y145279D02*
X1388850Y145279D01*
X1412183Y130279D02*
X1412183Y143136D01*
X1412183Y147421D02*
X1412183Y149564D01*
X1448850Y132421D02*
X1445517Y130279D01*
X1442183Y132421D01*
X1442183Y151707D01*
X1435517Y145279D02*
X1448850Y145279D01*
X1462183Y123850D02*
X1465517Y123850D01*
X1482183Y145279D01*
X1462183Y145279D02*
X1472183Y132421D01*
X1503183Y130279D02*
X1503183Y151707D01*
X1516517Y151707D01*
X1523183Y147421D01*
X1523183Y145279D01*
X1516517Y140993D01*
X1503183Y140993D01*
X1536517Y151707D02*
X1536517Y134564D01*
X1543183Y130279D01*
X1566517Y145279D02*
X1576517Y145279D01*
X1579850Y143136D01*
X1579850Y132421D01*
X1576517Y130279D01*
X1566517Y130279D01*
X1563183Y132421D01*
X1563183Y136707D01*
X1566517Y138850D01*
X1579850Y138850D01*
X1579850Y132421D02*
X1583183Y130279D01*
X1609850Y132421D02*
X1606517Y130279D01*
X1603183Y132421D01*
X1603183Y151707D01*
X1596517Y145279D02*
X1609850Y145279D01*
X1643183Y134564D02*
X1636517Y130279D01*
X1629850Y130279D01*
X1623183Y134564D01*
X1623183Y140993D01*
X1629850Y145279D01*
X1636517Y145279D01*
X1643183Y140993D01*
X1639850Y138850D01*
X1623183Y138850D01*
X1673183Y134564D02*
X1666517Y130279D01*
X1659850Y130279D01*
X1653183Y134564D01*
X1653183Y138850D01*
X1659850Y143136D01*
X1666517Y143136D01*
X1673183Y138850D01*
X1673183Y151707D02*
X1673183Y130279D01*
X1694183Y134564D02*
X1700850Y130279D01*
X1707517Y130279D01*
X1714183Y134564D01*
X1694183Y147421D01*
X1700850Y151707D01*
X1707517Y151707D01*
X1714183Y147421D01*
X1727517Y151707D02*
X1727517Y134564D01*
X1734183Y130279D01*
X1754183Y134564D02*
X1760850Y130279D01*
X1767517Y130279D01*
X1774183Y134564D01*
X1774183Y140993D01*
X1767517Y145279D01*
X1760850Y145279D01*
X1754183Y140993D01*
X1754183Y134564D01*
X1800850Y132421D02*
X1797517Y130279D01*
X1794183Y132421D01*
X1794183Y151707D01*
X1787517Y145279D02*
X1800850Y145279D01*
X1844183Y151707D02*
X1844183Y130279D01*
X1864183Y130279D01*
X1894183Y134564D02*
X1887517Y130279D01*
X1880850Y130279D01*
X1874183Y134564D01*
X1874183Y140993D01*
X1880850Y145279D01*
X1887517Y145279D01*
X1894183Y140993D01*
X1890850Y138850D01*
X1874183Y138850D01*
X1904183Y130279D02*
X1904183Y143136D01*
X1904183Y145279D01*
X1904183Y143136D02*
X1907517Y145279D01*
X1914183Y145279D01*
X1917517Y143136D01*
X1917517Y130279D01*
X1934183Y128136D02*
X1940850Y123850D01*
X1947517Y123850D01*
X1954183Y128136D01*
X1954183Y134564D01*
X1954183Y140993D01*
X1947517Y145279D01*
X1940850Y145279D01*
X1934183Y140993D01*
X1934183Y134564D01*
X1940850Y130279D01*
X1947517Y130279D01*
X1954183Y134564D01*
X1980850Y132421D02*
X1977517Y130279D01*
X1974183Y132421D01*
X1974183Y151707D01*
X1967517Y145279D02*
X1980850Y145279D01*
X1994183Y140993D02*
X2000850Y145279D01*
X2007517Y145279D01*
X2014183Y140993D01*
X2014183Y130279D01*
X1994183Y151707D02*
X1994183Y130279D01*
X861350Y159350D02*
X2026350Y159350D01*
X1162183Y171279D02*
X1162183Y184136D01*
X1168850Y192707D01*
X1175517Y192707D01*
X1182183Y184136D01*
X1182183Y171279D01*
X1162183Y177707D02*
X1182183Y177707D01*
X1195517Y192707D02*
X1195517Y175564D01*
X1202183Y171279D01*
X1225517Y192707D02*
X1225517Y175564D01*
X1232183Y171279D01*
X1282183Y186279D02*
X1282183Y175564D01*
X1288850Y171279D01*
X1295517Y171279D01*
X1302183Y175564D01*
X1302183Y186279D01*
X1302183Y175564D02*
X1302183Y171279D01*
X1312183Y171279D02*
X1312183Y184136D01*
X1312183Y186279D01*
X1312183Y184136D02*
X1315517Y186279D01*
X1322183Y186279D01*
X1325517Y184136D01*
X1325517Y171279D01*
X1352183Y171279D02*
X1352183Y184136D01*
X1352183Y188421D02*
X1352183Y190564D01*
X1388850Y173421D02*
X1385517Y171279D01*
X1382183Y173421D01*
X1382183Y192707D01*
X1375517Y186279D02*
X1388850Y186279D01*
X1402183Y175564D02*
X1408850Y171279D01*
X1415517Y171279D01*
X1422183Y175564D01*
X1402183Y181993D01*
X1408850Y186279D01*
X1415517Y186279D01*
X1422183Y181993D01*
X1465517Y186279D02*
X1475517Y186279D01*
X1478850Y184136D01*
X1478850Y173421D01*
X1475517Y171279D01*
X1465517Y171279D01*
X1462183Y173421D01*
X1462183Y177707D01*
X1465517Y179850D01*
X1478850Y179850D01*
X1478850Y173421D02*
X1482183Y171279D01*
X1492183Y179850D02*
X1502183Y186279D01*
X1505517Y186279D01*
X1512183Y181993D01*
X1492183Y171279D02*
X1492183Y186279D01*
X1542183Y175564D02*
X1535517Y171279D01*
X1528850Y171279D01*
X1522183Y175564D01*
X1522183Y181993D01*
X1528850Y186279D01*
X1535517Y186279D01*
X1542183Y181993D01*
X1538850Y179850D01*
X1522183Y179850D01*
X1592183Y171279D02*
X1592183Y184136D01*
X1592183Y188421D02*
X1592183Y190564D01*
X1612183Y171279D02*
X1612183Y184136D01*
X1612183Y186279D01*
X1612183Y184136D02*
X1615517Y186279D01*
X1622183Y186279D01*
X1625517Y184136D01*
X1625517Y171279D01*
X1672183Y171279D02*
X1672183Y184136D01*
X1672183Y186279D01*
X1672183Y184136D02*
X1675517Y186279D01*
X1678850Y186279D01*
X1682183Y184136D01*
X1685517Y186279D01*
X1688850Y186279D01*
X1692183Y184136D01*
X1692183Y171279D01*
X1682183Y184136D02*
X1682183Y171279D01*
X1702183Y171279D02*
X1702183Y184136D01*
X1702183Y186279D01*
X1702183Y184136D02*
X1705517Y186279D01*
X1708850Y186279D01*
X1712183Y184136D01*
X1715517Y186279D01*
X1718850Y186279D01*
X1722183Y184136D01*
X1722183Y171279D01*
X1712183Y184136D02*
X1712183Y171279D01*
X861350Y200350D02*
X2026350Y200350D01*
X1267183Y212279D02*
X1280517Y212279D01*
X1287183Y216564D01*
X1287183Y229421D01*
X1280517Y233707D01*
X1267183Y233707D01*
X1270517Y233707D02*
X1270517Y212279D01*
X1297183Y220850D02*
X1307183Y227279D01*
X1310517Y227279D01*
X1317183Y222993D01*
X1297183Y212279D02*
X1297183Y227279D01*
X1337183Y212279D02*
X1337183Y225136D01*
X1337183Y229421D02*
X1337183Y231564D01*
X1360517Y233707D02*
X1360517Y216564D01*
X1367183Y212279D01*
X1390517Y233707D02*
X1390517Y216564D01*
X1397183Y212279D01*
X1447183Y233707D02*
X1447183Y212279D01*
X1467183Y212279D01*
X1497183Y216564D02*
X1490517Y212279D01*
X1483850Y212279D01*
X1477183Y216564D01*
X1477183Y222993D01*
X1483850Y227279D01*
X1490517Y227279D01*
X1497183Y222993D01*
X1493850Y220850D01*
X1477183Y220850D01*
X1507183Y210136D02*
X1513850Y205850D01*
X1520517Y205850D01*
X1527183Y210136D01*
X1527183Y216564D01*
X1527183Y222993D01*
X1520517Y227279D01*
X1513850Y227279D01*
X1507183Y222993D01*
X1507183Y216564D01*
X1513850Y212279D01*
X1520517Y212279D01*
X1527183Y216564D01*
X1557183Y216564D02*
X1550517Y212279D01*
X1543850Y212279D01*
X1537183Y216564D01*
X1537183Y222993D01*
X1543850Y227279D01*
X1550517Y227279D01*
X1557183Y222993D01*
X1553850Y220850D01*
X1537183Y220850D01*
X1567183Y212279D02*
X1567183Y225136D01*
X1567183Y227279D01*
X1567183Y225136D02*
X1570517Y227279D01*
X1577183Y227279D01*
X1580517Y225136D01*
X1580517Y212279D01*
X1617183Y216564D02*
X1610517Y212279D01*
X1603850Y212279D01*
X1597183Y216564D01*
X1597183Y220850D01*
X1603850Y225136D01*
X1610517Y225136D01*
X1617183Y220850D01*
X1617183Y233707D02*
X1617183Y212279D01*

M02*
