M48
METRIC,TZ
VER,1
FMAT,2
DETECT,ON
ATC,ON
T1C3.0000
T2C0.9000
T3C0.8890
T4C0.9949
T5C0.8000
%
T1
X5.0000Y9.5000
X61.0000
T2
X30.5260Y20.8280
X17.5260
X15.0320Y2.0320
X2.0320
X48.0060Y2.0620
X61.0060
X27.9400Y2.7480
Y15.7480
X17.5260Y3.7640
Y16.7640
X37.8460Y7.8280
Y20.8280
X54.6100Y16.7340
X41.6100
T3
X35.1073Y7.6893
X30.6200
X35.1073Y1.1700
X30.6200
X35.1073Y17.8493
X30.6200
X35.1073Y11.3300
X30.6200
X14.7873Y12.7693
X10.3000
X14.7873Y6.2500
X10.3000
X6.4516Y17.5260
Y20.0660
X24.9473Y12.6153
X20.4600
X24.9473Y6.0960
X20.4600
X45.2673Y12.7693
X40.7800
X45.2673Y6.2500
X40.7800
X55.4273Y12.7693
X50.9400
X55.4273Y6.2500
X50.9400
T4
X6.4516Y14.9860
T5
X11.2300Y15.9520
Y18.4520
M30
