G04 Generated by Ultiboard 13.0 *
%FSLAX34Y34*%
%MOMM*%

%ADD11C,3.0000*%
%ADD12C,0.9000*%
%ADD13C,0.8890*%
%ADD14C,0.9949*%
%ADD15C,0.8000*%


G04 ColorRGB 000000 for the following layer *
%LNDrill-Copper Top-Copper Bottom*%
%LPD*%
G54D11*
X50000Y95000D03*
X610000Y95000D03*
G54D12*
X305260Y208280D03*
X175260Y208280D03*
X150320Y20320D03*
X20320Y20320D03*
X480060Y20620D03*
X610060Y20620D03*
X279400Y27480D03*
X279400Y157480D03*
X175260Y37640D03*
X175260Y167640D03*
X378460Y78280D03*
X378460Y208280D03*
X546100Y167340D03*
X416100Y167340D03*
G54D13*
X351073Y76893D03*
X306200Y76893D03*
X351073Y11700D03*
X306200Y11700D03*
X351073Y178493D03*
X306200Y178493D03*
X351073Y113300D03*
X306200Y113300D03*
X147873Y127693D03*
X103000Y127693D03*
X147873Y62500D03*
X103000Y62500D03*
X64516Y175260D03*
X64516Y200660D03*
X249473Y126153D03*
X204600Y126153D03*
X249473Y60960D03*
X204600Y60960D03*
X452673Y127693D03*
X407800Y127693D03*
X452673Y62500D03*
X407800Y62500D03*
X554273Y127693D03*
X509400Y127693D03*
X554273Y62500D03*
X509400Y62500D03*
G54D14*
X64516Y149860D03*
G54D15*
X112300Y159520D03*
X112300Y184520D03*

M02*
