G04 Generated by Ultiboard 13.0 *
%FSLAX34Y34*%
%MOMM*%

%ADD10C,0.0001*%
%ADD11C,0.2540*%
%ADD12C,1.5000*%
%ADD13C,0.2032*%
%ADD14C,1.5000*%
%ADD15C,1.8202*%
%ADD16C,1.6088*%
%ADD17R,0.5291X0.5291*%
%ADD18C,0.9949*%
%ADD19C,1.4000*%


G04 ColorRGB 0000FF for the following layer *
%LNCopper Bottom*%
%LPD*%
G54D10*
G36*
X365580Y6381D02*
X365580Y6381D01*
X643619Y6381D01*
X643619Y223619D01*
X6381Y223619D01*
X6381Y6381D01*
X291694Y6381D01*
G74*
D01*
G02X290992Y8970I14504J5322*
G01*
X290992Y8970D01*
X302692Y8970D01*
G75*
D01*
G02X302692Y14430I3508J2730*
G01*
X302692Y14430D01*
X290992Y14430D01*
G74*
D01*
G02X303470Y26908I15208J2730*
G01*
X303470Y26908D01*
X303470Y15208D01*
G75*
D01*
G02X308930Y15208I2730J-3508*
G01*
X308930Y15208D01*
X308930Y26908D01*
G74*
D01*
G02X321408Y14430I2730J15208*
G01*
X321408Y14430D01*
X309708Y14430D01*
G75*
D01*
G02X309708Y8970I-3508J-2730*
G01*
X309708Y8970D01*
X321408Y8970D01*
G74*
D01*
G02X320706Y6381I15207J2734*
G01*
X320706Y6381D01*
X336567Y6381D01*
G75*
D01*
G02X336603Y17116I14506J5319*
G01*
X336603Y17116D01*
X336603Y31873D01*
G74*
D01*
G02X335210Y31803I1394J13846*
G01*
X335210Y31803D01*
X305260Y31803D01*
G75*
D01*
G02X305030Y31805I6J13917*
G01*
G74*
D01*
G02X304800Y31803I236J13914*
G01*
X304800Y31803D01*
X303405Y31803D01*
X289241Y17639D01*
G75*
D01*
G02X269559Y37321I-9841J9841*
G01*
X269559Y37321D01*
X287799Y55561D01*
G75*
D01*
G02X297647Y59637I9841J-9841*
G01*
X297647Y59637D01*
X304800Y59637D01*
G74*
D01*
G02X305030Y59635I6J13917*
G01*
G75*
D01*
G02X305260Y59637I236J-13914*
G01*
X305260Y59637D01*
X329445Y59637D01*
X336603Y66795D01*
X336603Y71477D01*
G75*
D01*
G02X364543Y84463I14466J5427*
G01*
X364543Y84463D01*
X364543Y95835D01*
X359995Y100383D01*
X359551Y100383D01*
G75*
D01*
G02X339143Y123118I-8481J12914*
G01*
X339143Y123118D01*
X339143Y168675D01*
G75*
D01*
G02X366394Y180491I11931J9816*
G01*
G74*
D01*
G02X366977Y176507I13333J3986*
G01*
X366977Y176507D01*
X366977Y128164D01*
G74*
D01*
G02X375611Y124131I1217J13864*
G01*
X375611Y124131D01*
X388291Y111451D01*
G74*
D01*
G02X392377Y101600I9831J9851*
G01*
X392377Y101600D01*
X392377Y78280D01*
G75*
D01*
G02X365852Y72387I-13917J-1*
G01*
G74*
D01*
G02X364437Y69138I14779J4504*
G01*
X364437Y69138D01*
X364437Y19455D01*
G75*
D01*
G02X365580Y6381I-13364J-7755*
G01*
D02*
G37*
%LPC*%
G36*
X561327Y219657D02*
G75*
D01*
G02X566400Y218705I14J-13917*
G01*
G74*
D01*
G02X571191Y215571I5060J12965*
G01*
X571191Y215571D01*
X592251Y194511D01*
G74*
D01*
G02X596337Y184660I9831J9851*
G01*
X596337Y184660D01*
X596337Y111406D01*
G75*
D01*
G02X596337Y78594I13663J-16406*
G01*
X596337Y78594D01*
X596337Y76641D01*
X619891Y53087D01*
G74*
D01*
G02X623977Y43236I9831J9851*
G01*
X623977Y43236D01*
X623977Y20620D01*
G75*
D01*
G02X596143Y20620I-13917J0*
G01*
X596143Y20620D01*
X596143Y37471D01*
X572579Y61035D01*
G74*
D01*
G02X569122Y66772I9841J9840*
G01*
G75*
D01*
G02X567637Y54745I-14849J-4272*
G01*
X567637Y54745D01*
X567637Y30727D01*
G75*
D01*
G02X563551Y20876I-13917J0*
G01*
X563551Y20876D01*
X553164Y10489D01*
G74*
D01*
G02X543313Y6403I9851J9831*
G01*
X543313Y6403D01*
X480360Y6403D01*
G75*
D01*
G02X468967Y12328I0J13917*
G01*
G75*
D01*
G02X482590Y34237I11091J8293*
G01*
X482590Y34237D01*
X537549Y34237D01*
X539803Y36491D01*
X539803Y57084D01*
G75*
D01*
G02X539803Y67916I14470J5416*
G01*
X539803Y67916D01*
X539803Y122277D01*
G75*
D01*
G02X568503Y133714I14454J5458*
G01*
X568503Y133714D01*
X568503Y178895D01*
X555575Y191823D01*
X460265Y191823D01*
X427573Y159131D01*
G74*
D01*
G02X423931Y155835I11013J8509*
G01*
G75*
D01*
G02X402455Y164604I-7831J11505*
G01*
X402455Y164604D01*
X372695Y194363D01*
X308025Y194363D01*
X303470Y189808D01*
X303470Y182001D01*
G75*
D01*
G02X308930Y182001I2730J-3508*
G01*
X308930Y182001D01*
X308930Y193701D01*
G74*
D01*
G02X321408Y181223I2730J15208*
G01*
X321408Y181223D01*
X309708Y181223D01*
G75*
D01*
G02X309708Y175763I-3508J-2730*
G01*
X309708Y175763D01*
X321408Y175763D01*
G74*
D01*
G02X308930Y163286I15208J2731*
G01*
X308930Y163286D01*
X308930Y174985D01*
G75*
D01*
G02X303470Y174985I-2730J3508*
G01*
X303470Y174985D01*
X303470Y163286D01*
G74*
D01*
G02X293317Y169964I2730J15207*
G01*
X293317Y169964D01*
X293317Y157480D01*
G75*
D01*
G02X279400Y143563I-13917J0*
G01*
X279400Y143563D01*
X185426Y143563D01*
G75*
D01*
G02X175579Y147639I-6J13917*
G01*
X175579Y147639D01*
X165419Y157799D01*
G74*
D01*
G02X165412Y157806I9837J9844*
G01*
X165412Y157806D01*
X152615Y170603D01*
X119522Y170603D01*
X112437Y163518D01*
G74*
D01*
G02X116298Y159657I137J3998*
G01*
X116298Y159657D01*
X123471Y166830D01*
G75*
D01*
G02X123471Y152210I-11171J-7310*
G01*
X123471Y152210D01*
X116298Y159383D01*
G74*
D01*
G02X112437Y155522I3998J137*
G01*
X112437Y155522D01*
X119610Y148349D01*
G75*
D01*
G02X104990Y148349I-7310J11171*
G01*
X104990Y148349D01*
X112163Y155522D01*
G74*
D01*
G02X108302Y159383I137J3998*
G01*
X108302Y159383D01*
X101129Y152210D01*
G75*
D01*
G02X101129Y166830I11171J7310*
G01*
X101129Y166830D01*
X108302Y159657D01*
G74*
D01*
G02X112163Y163518I3998J137*
G01*
X112163Y163518D01*
X105078Y170603D01*
X98845Y170603D01*
X93671Y165429D01*
G74*
D01*
G02X84910Y161386I9850J9831*
G01*
G75*
D01*
G02X83815Y161343I-1093J13873*
G01*
X83815Y161343D01*
X74330Y161343D01*
G74*
D01*
G02X78540Y152590I7170J8837*
G01*
X78540Y152590D01*
X68675Y152590D01*
G75*
D01*
G02X68675Y147130I-4158J-2730*
G01*
X68675Y147130D01*
X78540Y147130D01*
G74*
D01*
G02X67246Y135836I11379J85*
G01*
X67246Y135836D01*
X67246Y145701D01*
G75*
D01*
G02X61786Y145701I-2730J4158*
G01*
X61786Y145701D01*
X61786Y135836D01*
G74*
D01*
G02X50492Y147130I85J11379*
G01*
X50492Y147130D01*
X60357Y147130D01*
G75*
D01*
G02X60357Y152590I4158J2730*
G01*
X60357Y152590D01*
X50492Y152590D01*
G74*
D01*
G02X54702Y161343I11379J84*
G01*
X54702Y161343D01*
X48945Y161343D01*
X34237Y146635D01*
X34237Y109400D01*
G75*
D01*
G02X34237Y80600I15763J-14400*
G01*
X34237Y80600D01*
X34237Y20320D01*
G75*
D01*
G02X6403Y20320I-13917J0*
G01*
X6403Y20320D01*
X6403Y152379D01*
G75*
D01*
G02X10479Y162241I13917J21*
G01*
X10479Y162241D01*
X33339Y185101D01*
G74*
D01*
G02X42248Y189146I9841J9841*
G01*
G75*
D01*
G02X43180Y189177I928J-13886*
G01*
X43180Y189177D01*
X55837Y189177D01*
G75*
D01*
G02X57274Y213100I8677J11483*
G01*
X57274Y213100D01*
X62295Y218121D01*
G75*
D01*
G02X72147Y222197I9841J-9841*
G01*
X72147Y222197D01*
X175260Y222197D01*
G75*
D01*
G02X175260Y194363I0J-13917*
G01*
X175260Y194363D01*
X168219Y194363D01*
G74*
D01*
G02X168231Y194351I9835J9847*
G01*
X168231Y194351D01*
X185101Y177481D01*
G74*
D01*
G02X185108Y177474I9837J9844*
G01*
X185108Y177474D01*
X191185Y171397D01*
X265483Y171397D01*
X265483Y182880D01*
G74*
D01*
G02X265541Y184150I13917J1*
G01*
G75*
D01*
G02X269559Y195261I13859J1270*
G01*
X269559Y195261D01*
X292419Y218121D01*
G74*
D01*
G02X301328Y222166I9841J9841*
G01*
G75*
D01*
G02X302260Y222197I928J-13886*
G01*
X302260Y222197D01*
X378460Y222197D01*
G74*
D01*
G02X388313Y218109I0J13917*
G01*
X388313Y218109D01*
X417750Y188672D01*
X444659Y215581D01*
G75*
D01*
G02X454514Y219657I9841J-9841*
G01*
X454514Y219657D01*
X561327Y219657D01*
D02*
G37*
G36*
X472442Y184097D02*
X472442Y184097D01*
X543248Y184097D01*
G75*
D01*
G02X547535Y183424I12J-13917*
G01*
G74*
D01*
G02X553111Y180011I4274J13244*
G01*
X553111Y180011D01*
X555941Y177181D01*
G75*
D01*
G02X537675Y156263I-9840J-9842*
G01*
X537675Y156263D01*
X478205Y156263D01*
X473619Y151678D01*
X473619Y151678D01*
X466037Y144095D01*
X466037Y135448D01*
G75*
D01*
G02X466037Y119938I-13364J-7755*
G01*
X466037Y119938D01*
X466037Y70255D01*
G75*
D01*
G02X438203Y67916I-13364J-7756*
G01*
X438203Y67916D01*
X438203Y122277D01*
G75*
D01*
G02X438203Y133110I14469J5417*
G01*
X438203Y133110D01*
X438203Y149851D01*
G75*
D01*
G02X442279Y159701I13917J9*
G01*
X442279Y159701D01*
X462599Y180021D01*
G75*
D01*
G02X472442Y184097I9841J-9841*
G01*
D02*
G37*
G36*
X185101Y47481D02*
X185101Y47481D01*
X190725Y41857D01*
X223609Y41857D01*
X233619Y51868D01*
X233619Y51868D01*
X235003Y53251D01*
X235003Y55544D01*
G75*
D01*
G02X235003Y66376I14470J5416*
G01*
X235003Y66376D01*
X235003Y120737D01*
G75*
D01*
G02X262837Y118398I14470J5414*
G01*
X262837Y118398D01*
X262837Y68715D01*
G75*
D01*
G02X262837Y53205I-13364J-7755*
G01*
X262837Y53205D01*
X262837Y47487D01*
G75*
D01*
G02X258751Y37636I-13917J0*
G01*
X258751Y37636D01*
X239224Y18109D01*
G74*
D01*
G02X229395Y14023I9851J9831*
G01*
G75*
D01*
G02X229373Y14023I-11J13917*
G01*
X229373Y14023D01*
X184969Y14023D01*
G75*
D01*
G02X175119Y18099I-9J13917*
G01*
X175119Y18099D01*
X165419Y27799D01*
G75*
D01*
G02X185101Y47481I9841J9841*
G01*
D02*
G37*
G36*
X512908Y65230D02*
G75*
D01*
G02X512908Y59770I-3508J-2730*
G01*
X512908Y59770D01*
X524608Y59770D01*
G74*
D01*
G02X512130Y47292I15208J2730*
G01*
X512130Y47292D01*
X512130Y58992D01*
G75*
D01*
G02X506670Y58992I-2730J3508*
G01*
X506670Y58992D01*
X506670Y47292D01*
G74*
D01*
G02X494192Y59770I2730J15208*
G01*
X494192Y59770D01*
X505892Y59770D01*
G75*
D01*
G02X505892Y65230I3508J2730*
G01*
X505892Y65230D01*
X494192Y65230D01*
G74*
D01*
G02X506670Y77708I15208J2730*
G01*
X506670Y77708D01*
X506670Y66008D01*
G75*
D01*
G02X512130Y66008I2730J-3508*
G01*
X512130Y66008D01*
X512130Y77708D01*
G74*
D01*
G02X524608Y65230I2730J15208*
G01*
X524608Y65230D01*
X512908Y65230D01*
D02*
G37*
G36*
X512908Y130423D02*
G75*
D01*
G02X512908Y124963I-3508J-2730*
G01*
X512908Y124963D01*
X524608Y124963D01*
G74*
D01*
G02X512130Y112486I15208J2731*
G01*
X512130Y112486D01*
X512130Y124185D01*
G75*
D01*
G02X506670Y124185I-2730J3508*
G01*
X506670Y124185D01*
X506670Y112486D01*
G74*
D01*
G02X494192Y124963I2729J15207*
G01*
X494192Y124963D01*
X505892Y124963D01*
G75*
D01*
G02X505892Y130423I3508J2730*
G01*
X505892Y130423D01*
X494192Y130423D01*
G74*
D01*
G02X506670Y142901I15208J2730*
G01*
X506670Y142901D01*
X506670Y131201D01*
G75*
D01*
G02X512130Y131201I2730J-3508*
G01*
X512130Y131201D01*
X512130Y142901D01*
G74*
D01*
G02X524608Y130423I2730J15208*
G01*
X524608Y130423D01*
X512908Y130423D01*
D02*
G37*
G36*
X309708Y79623D02*
G75*
D01*
G02X309708Y74163I-3508J-2730*
G01*
X309708Y74163D01*
X321408Y74163D01*
G74*
D01*
G02X308930Y61686I15208J2731*
G01*
X308930Y61686D01*
X308930Y73385D01*
G75*
D01*
G02X303470Y73385I-2730J3508*
G01*
X303470Y73385D01*
X303470Y61686D01*
G74*
D01*
G02X290992Y74163I2729J15207*
G01*
X290992Y74163D01*
X302692Y74163D01*
G75*
D01*
G02X302692Y79623I3508J2730*
G01*
X302692Y79623D01*
X290992Y79623D01*
G74*
D01*
G02X303470Y92101I15208J2730*
G01*
X303470Y92101D01*
X303470Y80401D01*
G75*
D01*
G02X308930Y80401I2730J-3508*
G01*
X308930Y80401D01*
X308930Y92101D01*
G74*
D01*
G02X321408Y79623I2730J15208*
G01*
X321408Y79623D01*
X309708Y79623D01*
D02*
G37*
G36*
X411308Y130423D02*
G75*
D01*
G02X411308Y124963I-3508J-2730*
G01*
X411308Y124963D01*
X423008Y124963D01*
G74*
D01*
G02X410530Y112486I15208J2731*
G01*
X410530Y112486D01*
X410530Y124185D01*
G75*
D01*
G02X405070Y124185I-2730J3508*
G01*
X405070Y124185D01*
X405070Y112486D01*
G74*
D01*
G02X392592Y124963I2729J15207*
G01*
X392592Y124963D01*
X404292Y124963D01*
G75*
D01*
G02X404292Y130423I3508J2730*
G01*
X404292Y130423D01*
X392592Y130423D01*
G74*
D01*
G02X405070Y142901I15208J2730*
G01*
X405070Y142901D01*
X405070Y131201D01*
G75*
D01*
G02X410530Y131201I2730J-3508*
G01*
X410530Y131201D01*
X410530Y142901D01*
G74*
D01*
G02X423008Y130423I2730J15208*
G01*
X423008Y130423D01*
X411308Y130423D01*
D02*
G37*
G36*
X309708Y116030D02*
G75*
D01*
G02X309708Y110570I-3508J-2730*
G01*
X309708Y110570D01*
X321408Y110570D01*
G74*
D01*
G02X308930Y98092I15208J2730*
G01*
X308930Y98092D01*
X308930Y109792D01*
G75*
D01*
G02X303470Y109792I-2730J3508*
G01*
X303470Y109792D01*
X303470Y98092D01*
G74*
D01*
G02X290992Y110570I2730J15208*
G01*
X290992Y110570D01*
X302692Y110570D01*
G75*
D01*
G02X302692Y116030I3508J2730*
G01*
X302692Y116030D01*
X290992Y116030D01*
G74*
D01*
G02X303470Y128508I15208J2730*
G01*
X303470Y128508D01*
X303470Y116808D01*
G75*
D01*
G02X308930Y116808I2730J-3508*
G01*
X308930Y116808D01*
X308930Y128508D01*
G74*
D01*
G02X321408Y116030I2730J15208*
G01*
X321408Y116030D01*
X309708Y116030D01*
D02*
G37*
G36*
X411308Y65230D02*
G75*
D01*
G02X411308Y59770I-3508J-2730*
G01*
X411308Y59770D01*
X423008Y59770D01*
G74*
D01*
G02X410530Y47292I15208J2730*
G01*
X410530Y47292D01*
X410530Y58992D01*
G75*
D01*
G02X405070Y58992I-2730J3508*
G01*
X405070Y58992D01*
X405070Y47292D01*
G74*
D01*
G02X392592Y59770I2730J15208*
G01*
X392592Y59770D01*
X404292Y59770D01*
G75*
D01*
G02X404292Y65230I3508J2730*
G01*
X404292Y65230D01*
X392592Y65230D01*
G74*
D01*
G02X405070Y77708I15208J2730*
G01*
X405070Y77708D01*
X405070Y66008D01*
G75*
D01*
G02X410530Y66008I2730J-3508*
G01*
X410530Y66008D01*
X410530Y77708D01*
G74*
D01*
G02X423008Y65230I2730J15208*
G01*
X423008Y65230D01*
X411308Y65230D01*
D02*
G37*
G36*
X161237Y119938D02*
X161237Y119938D01*
X161237Y70255D01*
G75*
D01*
G02X161237Y54745I-13364J-7755*
G01*
X161237Y54745D01*
X161237Y28843D01*
G75*
D01*
G02X149130Y6521I-10915J-8524*
G01*
G75*
D01*
G02X133403Y20320I-1810J13799*
G01*
X133403Y20320D01*
X133403Y57084D01*
G75*
D01*
G02X133403Y67916I14470J5416*
G01*
X133403Y67916D01*
X133403Y122277D01*
G75*
D01*
G02X161237Y119938I14470J5414*
G01*
D02*
G37*
G36*
X106508Y65230D02*
G75*
D01*
G02X106508Y59770I-3508J-2730*
G01*
X106508Y59770D01*
X118208Y59770D01*
G74*
D01*
G02X105730Y47292I15208J2730*
G01*
X105730Y47292D01*
X105730Y58992D01*
G75*
D01*
G02X100270Y58992I-2730J3508*
G01*
X100270Y58992D01*
X100270Y47292D01*
G74*
D01*
G02X87792Y59770I2730J15208*
G01*
X87792Y59770D01*
X99492Y59770D01*
G75*
D01*
G02X99492Y65230I3508J2730*
G01*
X99492Y65230D01*
X87792Y65230D01*
G74*
D01*
G02X100270Y77708I15208J2730*
G01*
X100270Y77708D01*
X100270Y66008D01*
G75*
D01*
G02X105730Y66008I2730J-3508*
G01*
X105730Y66008D01*
X105730Y77708D01*
G74*
D01*
G02X118208Y65230I2730J15208*
G01*
X118208Y65230D01*
X106508Y65230D01*
D02*
G37*
G36*
X208108Y63690D02*
G75*
D01*
G02X208108Y58230I-3508J-2730*
G01*
X208108Y58230D01*
X219808Y58230D01*
G74*
D01*
G02X207330Y45752I15208J2730*
G01*
X207330Y45752D01*
X207330Y57452D01*
G75*
D01*
G02X201870Y57452I-2730J3508*
G01*
X201870Y57452D01*
X201870Y45752D01*
G74*
D01*
G02X189392Y58230I2730J15208*
G01*
X189392Y58230D01*
X201092Y58230D01*
G75*
D01*
G02X201092Y63690I3508J2730*
G01*
X201092Y63690D01*
X189392Y63690D01*
G74*
D01*
G02X201870Y76168I15208J2730*
G01*
X201870Y76168D01*
X201870Y64468D01*
G75*
D01*
G02X207330Y64468I2730J-3508*
G01*
X207330Y64468D01*
X207330Y76168D01*
G74*
D01*
G02X219808Y63690I2730J15208*
G01*
X219808Y63690D01*
X208108Y63690D01*
D02*
G37*
G36*
X106508Y130423D02*
G75*
D01*
G02X106508Y124963I-3508J-2730*
G01*
X106508Y124963D01*
X118208Y124963D01*
G74*
D01*
G02X105730Y112486I15208J2731*
G01*
X105730Y112486D01*
X105730Y124185D01*
G75*
D01*
G02X100270Y124185I-2730J3508*
G01*
X100270Y124185D01*
X100270Y112486D01*
G74*
D01*
G02X87792Y124963I2729J15207*
G01*
X87792Y124963D01*
X99492Y124963D01*
G75*
D01*
G02X99492Y130423I3508J2730*
G01*
X99492Y130423D01*
X87792Y130423D01*
G74*
D01*
G02X100270Y142901I15208J2730*
G01*
X100270Y142901D01*
X100270Y131201D01*
G75*
D01*
G02X105730Y131201I2730J-3508*
G01*
X105730Y131201D01*
X105730Y142901D01*
G74*
D01*
G02X118208Y130423I2730J15208*
G01*
X118208Y130423D01*
X106508Y130423D01*
D02*
G37*
G36*
X208108Y128883D02*
G75*
D01*
G02X208108Y123423I-3508J-2730*
G01*
X208108Y123423D01*
X219808Y123423D01*
G74*
D01*
G02X207330Y110946I15208J2731*
G01*
X207330Y110946D01*
X207330Y122645D01*
G75*
D01*
G02X201870Y122645I-2730J3508*
G01*
X201870Y122645D01*
X201870Y110946D01*
G74*
D01*
G02X189392Y123423I2729J15207*
G01*
X189392Y123423D01*
X201092Y123423D01*
G75*
D01*
G02X201092Y128883I3508J2730*
G01*
X201092Y128883D01*
X189392Y128883D01*
G74*
D01*
G02X201870Y141361I15208J2730*
G01*
X201870Y141361D01*
X201870Y129661D01*
G75*
D01*
G02X207330Y129661I2730J-3508*
G01*
X207330Y129661D01*
X207330Y141361D01*
G74*
D01*
G02X219808Y128883I2730J15208*
G01*
X219808Y128883D01*
X208108Y128883D01*
D02*
G37*
%LPD*%
G36*
X569042Y67041D02*
G74*
D01*
G03X567637Y70255I14768J4542*
G01*
X567637Y70255D01*
X567637Y119938D01*
G74*
D01*
G03X568503Y121673I13364J7754*
G01*
X568503Y121673D01*
X568503Y70897D01*
G75*
D01*
G03X569042Y67041I13917J-20*
G01*
D02*
G37*
G36*
X76956Y193418D02*
X76956Y193418D01*
X77901Y194363D01*
X83241Y194363D01*
G74*
D01*
G03X83239Y194361I9840J9842*
G01*
X83239Y194361D01*
X78055Y189177D01*
X73195Y189177D01*
G74*
D01*
G03X76956Y193418I8677J11483*
G01*
D02*
G37*
G36*
X302692Y181223D02*
G75*
D01*
G03X302692Y175763I3508J-2730*
G01*
X302692Y175763D01*
X293317Y175763D01*
X293317Y179655D01*
X294885Y181223D01*
X302692Y181223D01*
D02*
G37*
G36*
X61786Y161127D02*
G75*
D01*
G03X67246Y161127I2730J14133*
G01*
X67246Y161127D01*
X67246Y154019D01*
G75*
D01*
G03X61786Y154019I-2730J-4158*
G01*
X61786Y154019D01*
X61786Y161127D01*
D02*
G37*
G36*
X308930Y8192D02*
G75*
D01*
G02X303470Y8192I-2730J3508*
G01*
X303470Y8192D01*
X303470Y6381D01*
X308930Y6381D01*
X308930Y8192D01*
D02*
G37*
G54D11*
X569042Y67041D02*
G74*
D01*
G03X567637Y70255I14768J4542*
G01*
X567637Y119938D01*
G74*
D01*
G03X568503Y121673I13364J7754*
G01*
X568503Y70897D01*
G75*
D01*
G03X569042Y67041I13917J-20*
G01*
X76956Y193418D02*
X77901Y194363D01*
X83241Y194363D01*
G74*
D01*
G03X83239Y194361I9840J9842*
G01*
X78055Y189177D01*
X73195Y189177D01*
G74*
D01*
G03X76956Y193418I8677J11483*
G01*
X308930Y8192D02*
G75*
D01*
G02X303470Y8192I-2730J3508*
G01*
X303470Y6381D01*
X308930Y6381D01*
X308930Y8192D01*
X61786Y161127D02*
G75*
D01*
G03X67246Y161127I2730J14133*
G01*
X67246Y154019D01*
G75*
D01*
G03X61786Y154019I-2730J-4158*
G01*
X61786Y161127D01*
X561327Y219657D02*
G75*
D01*
G02X566400Y218705I14J-13917*
G01*
G74*
D01*
G02X571191Y215571I5060J12965*
G01*
X592251Y194511D01*
G74*
D01*
G02X596337Y184660I9831J9851*
G01*
X596337Y111406D01*
G75*
D01*
G02X596337Y78594I13663J-16406*
G01*
X596337Y76641D01*
X619891Y53087D01*
G74*
D01*
G02X623977Y43236I9831J9851*
G01*
X623977Y20620D01*
G75*
D01*
G02X596143Y20620I-13917J0*
G01*
X596143Y37471D01*
X572579Y61035D01*
G74*
D01*
G02X569122Y66772I9841J9840*
G01*
G75*
D01*
G02X567637Y54745I-14849J-4272*
G01*
X567637Y30727D01*
G75*
D01*
G02X563551Y20876I-13917J0*
G01*
X553164Y10489D01*
G74*
D01*
G02X543313Y6403I9851J9831*
G01*
X480360Y6403D01*
G75*
D01*
G02X468967Y12328I0J13917*
G01*
G75*
D01*
G02X482590Y34237I11091J8293*
G01*
X537549Y34237D01*
X539803Y36491D01*
X539803Y57084D01*
G75*
D01*
G02X539803Y67916I14470J5416*
G01*
X539803Y122277D01*
G75*
D01*
G02X568503Y133714I14454J5458*
G01*
X568503Y178895D01*
X555575Y191823D01*
X460265Y191823D01*
X427573Y159131D01*
G74*
D01*
G02X423931Y155835I11013J8509*
G01*
G75*
D01*
G02X402455Y164604I-7831J11505*
G01*
X372695Y194363D01*
X308025Y194363D01*
X303470Y189808D01*
X303470Y182001D01*
G75*
D01*
G02X308930Y182001I2730J-3508*
G01*
X308930Y193701D01*
G74*
D01*
G02X321408Y181223I2730J15208*
G01*
X309708Y181223D01*
G75*
D01*
G02X309708Y175763I-3508J-2730*
G01*
X321408Y175763D01*
G74*
D01*
G02X308930Y163286I15208J2731*
G01*
X308930Y174985D01*
G75*
D01*
G02X303470Y174985I-2730J3508*
G01*
X303470Y163286D01*
G74*
D01*
G02X293317Y169964I2730J15207*
G01*
X293317Y157480D01*
G75*
D01*
G02X279400Y143563I-13917J0*
G01*
X185426Y143563D01*
G75*
D01*
G02X175579Y147639I-6J13917*
G01*
X165419Y157799D01*
G74*
D01*
G02X165412Y157806I9837J9844*
G01*
X152615Y170603D01*
X119522Y170603D01*
X112437Y163518D01*
G74*
D01*
G02X116298Y159657I137J3998*
G01*
X123471Y166830D01*
G75*
D01*
G02X123471Y152210I-11171J-7310*
G01*
X116298Y159383D01*
G74*
D01*
G02X112437Y155522I3998J137*
G01*
X119610Y148349D01*
G75*
D01*
G02X104990Y148349I-7310J11171*
G01*
X112163Y155522D01*
G74*
D01*
G02X108302Y159383I137J3998*
G01*
X101129Y152210D01*
G75*
D01*
G02X101129Y166830I11171J7310*
G01*
X108302Y159657D01*
G74*
D01*
G02X112163Y163518I3998J137*
G01*
X105078Y170603D01*
X98845Y170603D01*
X93671Y165429D01*
G74*
D01*
G02X84910Y161386I9850J9831*
G01*
G75*
D01*
G02X83815Y161343I-1093J13873*
G01*
X74330Y161343D01*
G74*
D01*
G02X78540Y152590I7170J8837*
G01*
X68675Y152590D01*
G75*
D01*
G02X68675Y147130I-4158J-2730*
G01*
X78540Y147130D01*
G74*
D01*
G02X67246Y135836I11379J85*
G01*
X67246Y145701D01*
G75*
D01*
G02X61786Y145701I-2730J4158*
G01*
X61786Y135836D01*
G74*
D01*
G02X50492Y147130I85J11379*
G01*
X60357Y147130D01*
G75*
D01*
G02X60357Y152590I4158J2730*
G01*
X50492Y152590D01*
G74*
D01*
G02X54702Y161343I11379J84*
G01*
X48945Y161343D01*
X34237Y146635D01*
X34237Y109400D01*
G75*
D01*
G02X34237Y80600I15763J-14400*
G01*
X34237Y20320D01*
G75*
D01*
G02X6403Y20320I-13917J0*
G01*
X6403Y152379D01*
G75*
D01*
G02X10479Y162241I13917J21*
G01*
X33339Y185101D01*
G74*
D01*
G02X42248Y189146I9841J9841*
G01*
G75*
D01*
G02X43180Y189177I928J-13886*
G01*
X55837Y189177D01*
G75*
D01*
G02X57274Y213100I8677J11483*
G01*
X62295Y218121D01*
G75*
D01*
G02X72147Y222197I9841J-9841*
G01*
X175260Y222197D01*
G75*
D01*
G02X175260Y194363I0J-13917*
G01*
X168219Y194363D01*
G74*
D01*
G02X168231Y194351I9835J9847*
G01*
X185101Y177481D01*
G74*
D01*
G02X185108Y177474I9837J9844*
G01*
X191185Y171397D01*
X265483Y171397D01*
X265483Y182880D01*
G74*
D01*
G02X265541Y184150I13917J1*
G01*
G75*
D01*
G02X269559Y195261I13859J1270*
G01*
X292419Y218121D01*
G74*
D01*
G02X301328Y222166I9841J9841*
G01*
G75*
D01*
G02X302260Y222197I928J-13886*
G01*
X378460Y222197D01*
G74*
D01*
G02X388313Y218109I0J13917*
G01*
X417750Y188672D01*
X444659Y215581D01*
G75*
D01*
G02X454514Y219657I9841J-9841*
G01*
X561327Y219657D01*
X472442Y184097D02*
X543248Y184097D01*
G75*
D01*
G02X547535Y183424I12J-13917*
G01*
G74*
D01*
G02X553111Y180011I4274J13244*
G01*
X555941Y177181D01*
G75*
D01*
G02X537675Y156263I-9840J-9842*
G01*
X478205Y156263D01*
X473619Y151678D01*
X473619Y151678D01*
X466037Y144095D01*
X466037Y135448D01*
G75*
D01*
G02X466037Y119938I-13364J-7755*
G01*
X466037Y70255D01*
G75*
D01*
G02X438203Y67916I-13364J-7756*
G01*
X438203Y122277D01*
G75*
D01*
G02X438203Y133110I14469J5417*
G01*
X438203Y149851D01*
G75*
D01*
G02X442279Y159701I13917J9*
G01*
X462599Y180021D01*
G75*
D01*
G02X472442Y184097I9841J-9841*
G01*
X185101Y47481D02*
X190725Y41857D01*
X223609Y41857D01*
X233619Y51868D01*
X233619Y51868D01*
X235003Y53251D01*
X235003Y55544D01*
G75*
D01*
G02X235003Y66376I14470J5416*
G01*
X235003Y120737D01*
G75*
D01*
G02X262837Y118398I14470J5414*
G01*
X262837Y68715D01*
G75*
D01*
G02X262837Y53205I-13364J-7755*
G01*
X262837Y47487D01*
G75*
D01*
G02X258751Y37636I-13917J0*
G01*
X239224Y18109D01*
G74*
D01*
G02X229395Y14023I9851J9831*
G01*
G75*
D01*
G02X229373Y14023I-11J13917*
G01*
X184969Y14023D01*
G75*
D01*
G02X175119Y18099I-9J13917*
G01*
X165419Y27799D01*
G75*
D01*
G02X185101Y47481I9841J9841*
G01*
X512908Y65230D02*
G75*
D01*
G02X512908Y59770I-3508J-2730*
G01*
X524608Y59770D01*
G74*
D01*
G02X512130Y47292I15208J2730*
G01*
X512130Y58992D01*
G75*
D01*
G02X506670Y58992I-2730J3508*
G01*
X506670Y47292D01*
G74*
D01*
G02X494192Y59770I2730J15208*
G01*
X505892Y59770D01*
G75*
D01*
G02X505892Y65230I3508J2730*
G01*
X494192Y65230D01*
G74*
D01*
G02X506670Y77708I15208J2730*
G01*
X506670Y66008D01*
G75*
D01*
G02X512130Y66008I2730J-3508*
G01*
X512130Y77708D01*
G74*
D01*
G02X524608Y65230I2730J15208*
G01*
X512908Y65230D01*
X512908Y130423D02*
G75*
D01*
G02X512908Y124963I-3508J-2730*
G01*
X524608Y124963D01*
G74*
D01*
G02X512130Y112486I15208J2731*
G01*
X512130Y124185D01*
G75*
D01*
G02X506670Y124185I-2730J3508*
G01*
X506670Y112486D01*
G74*
D01*
G02X494192Y124963I2729J15207*
G01*
X505892Y124963D01*
G75*
D01*
G02X505892Y130423I3508J2730*
G01*
X494192Y130423D01*
G74*
D01*
G02X506670Y142901I15208J2730*
G01*
X506670Y131201D01*
G75*
D01*
G02X512130Y131201I2730J-3508*
G01*
X512130Y142901D01*
G74*
D01*
G02X524608Y130423I2730J15208*
G01*
X512908Y130423D01*
X309708Y79623D02*
G75*
D01*
G02X309708Y74163I-3508J-2730*
G01*
X321408Y74163D01*
G74*
D01*
G02X308930Y61686I15208J2731*
G01*
X308930Y73385D01*
G75*
D01*
G02X303470Y73385I-2730J3508*
G01*
X303470Y61686D01*
G74*
D01*
G02X290992Y74163I2729J15207*
G01*
X302692Y74163D01*
G75*
D01*
G02X302692Y79623I3508J2730*
G01*
X290992Y79623D01*
G74*
D01*
G02X303470Y92101I15208J2730*
G01*
X303470Y80401D01*
G75*
D01*
G02X308930Y80401I2730J-3508*
G01*
X308930Y92101D01*
G74*
D01*
G02X321408Y79623I2730J15208*
G01*
X309708Y79623D01*
X411308Y130423D02*
G75*
D01*
G02X411308Y124963I-3508J-2730*
G01*
X423008Y124963D01*
G74*
D01*
G02X410530Y112486I15208J2731*
G01*
X410530Y124185D01*
G75*
D01*
G02X405070Y124185I-2730J3508*
G01*
X405070Y112486D01*
G74*
D01*
G02X392592Y124963I2729J15207*
G01*
X404292Y124963D01*
G75*
D01*
G02X404292Y130423I3508J2730*
G01*
X392592Y130423D01*
G74*
D01*
G02X405070Y142901I15208J2730*
G01*
X405070Y131201D01*
G75*
D01*
G02X410530Y131201I2730J-3508*
G01*
X410530Y142901D01*
G74*
D01*
G02X423008Y130423I2730J15208*
G01*
X411308Y130423D01*
X309708Y116030D02*
G75*
D01*
G02X309708Y110570I-3508J-2730*
G01*
X321408Y110570D01*
G74*
D01*
G02X308930Y98092I15208J2730*
G01*
X308930Y109792D01*
G75*
D01*
G02X303470Y109792I-2730J3508*
G01*
X303470Y98092D01*
G74*
D01*
G02X290992Y110570I2730J15208*
G01*
X302692Y110570D01*
G75*
D01*
G02X302692Y116030I3508J2730*
G01*
X290992Y116030D01*
G74*
D01*
G02X303470Y128508I15208J2730*
G01*
X303470Y116808D01*
G75*
D01*
G02X308930Y116808I2730J-3508*
G01*
X308930Y128508D01*
G74*
D01*
G02X321408Y116030I2730J15208*
G01*
X309708Y116030D01*
X411308Y65230D02*
G75*
D01*
G02X411308Y59770I-3508J-2730*
G01*
X423008Y59770D01*
G74*
D01*
G02X410530Y47292I15208J2730*
G01*
X410530Y58992D01*
G75*
D01*
G02X405070Y58992I-2730J3508*
G01*
X405070Y47292D01*
G74*
D01*
G02X392592Y59770I2730J15208*
G01*
X404292Y59770D01*
G75*
D01*
G02X404292Y65230I3508J2730*
G01*
X392592Y65230D01*
G74*
D01*
G02X405070Y77708I15208J2730*
G01*
X405070Y66008D01*
G75*
D01*
G02X410530Y66008I2730J-3508*
G01*
X410530Y77708D01*
G74*
D01*
G02X423008Y65230I2730J15208*
G01*
X411308Y65230D01*
X161237Y119938D02*
X161237Y70255D01*
G75*
D01*
G02X161237Y54745I-13364J-7755*
G01*
X161237Y28843D01*
G75*
D01*
G02X149130Y6521I-10915J-8524*
G01*
G75*
D01*
G02X133403Y20320I-1810J13799*
G01*
X133403Y57084D01*
G75*
D01*
G02X133403Y67916I14470J5416*
G01*
X133403Y122277D01*
G75*
D01*
G02X161237Y119938I14470J5414*
G01*
X106508Y65230D02*
G75*
D01*
G02X106508Y59770I-3508J-2730*
G01*
X118208Y59770D01*
G74*
D01*
G02X105730Y47292I15208J2730*
G01*
X105730Y58992D01*
G75*
D01*
G02X100270Y58992I-2730J3508*
G01*
X100270Y47292D01*
G74*
D01*
G02X87792Y59770I2730J15208*
G01*
X99492Y59770D01*
G75*
D01*
G02X99492Y65230I3508J2730*
G01*
X87792Y65230D01*
G74*
D01*
G02X100270Y77708I15208J2730*
G01*
X100270Y66008D01*
G75*
D01*
G02X105730Y66008I2730J-3508*
G01*
X105730Y77708D01*
G74*
D01*
G02X118208Y65230I2730J15208*
G01*
X106508Y65230D01*
X208108Y63690D02*
G75*
D01*
G02X208108Y58230I-3508J-2730*
G01*
X219808Y58230D01*
G74*
D01*
G02X207330Y45752I15208J2730*
G01*
X207330Y57452D01*
G75*
D01*
G02X201870Y57452I-2730J3508*
G01*
X201870Y45752D01*
G74*
D01*
G02X189392Y58230I2730J15208*
G01*
X201092Y58230D01*
G75*
D01*
G02X201092Y63690I3508J2730*
G01*
X189392Y63690D01*
G74*
D01*
G02X201870Y76168I15208J2730*
G01*
X201870Y64468D01*
G75*
D01*
G02X207330Y64468I2730J-3508*
G01*
X207330Y76168D01*
G74*
D01*
G02X219808Y63690I2730J15208*
G01*
X208108Y63690D01*
X106508Y130423D02*
G75*
D01*
G02X106508Y124963I-3508J-2730*
G01*
X118208Y124963D01*
G74*
D01*
G02X105730Y112486I15208J2731*
G01*
X105730Y124185D01*
G75*
D01*
G02X100270Y124185I-2730J3508*
G01*
X100270Y112486D01*
G74*
D01*
G02X87792Y124963I2729J15207*
G01*
X99492Y124963D01*
G75*
D01*
G02X99492Y130423I3508J2730*
G01*
X87792Y130423D01*
G74*
D01*
G02X100270Y142901I15208J2730*
G01*
X100270Y131201D01*
G75*
D01*
G02X105730Y131201I2730J-3508*
G01*
X105730Y142901D01*
G74*
D01*
G02X118208Y130423I2730J15208*
G01*
X106508Y130423D01*
X208108Y128883D02*
G75*
D01*
G02X208108Y123423I-3508J-2730*
G01*
X219808Y123423D01*
G74*
D01*
G02X207330Y110946I15208J2731*
G01*
X207330Y122645D01*
G75*
D01*
G02X201870Y122645I-2730J3508*
G01*
X201870Y110946D01*
G74*
D01*
G02X189392Y123423I2729J15207*
G01*
X201092Y123423D01*
G75*
D01*
G02X201092Y128883I3508J2730*
G01*
X189392Y128883D01*
G74*
D01*
G02X201870Y141361I15208J2730*
G01*
X201870Y129661D01*
G75*
D01*
G02X207330Y129661I2730J-3508*
G01*
X207330Y141361D01*
G74*
D01*
G02X219808Y128883I2730J15208*
G01*
X208108Y128883D01*
X365580Y6381D02*
X643619Y6381D01*
X643619Y223619D01*
X6381Y223619D01*
X6381Y6381D01*
X291694Y6381D01*
G74*
D01*
G02X290992Y8970I14504J5322*
G01*
X302692Y8970D01*
G75*
D01*
G02X302692Y14430I3508J2730*
G01*
X290992Y14430D01*
G74*
D01*
G02X303470Y26908I15208J2730*
G01*
X303470Y15208D01*
G75*
D01*
G02X308930Y15208I2730J-3508*
G01*
X308930Y26908D01*
G74*
D01*
G02X321408Y14430I2730J15208*
G01*
X309708Y14430D01*
G75*
D01*
G02X309708Y8970I-3508J-2730*
G01*
X321408Y8970D01*
G74*
D01*
G02X320706Y6381I15207J2734*
G01*
X336567Y6381D01*
G75*
D01*
G02X336603Y17116I14506J5319*
G01*
X336603Y31873D01*
G74*
D01*
G02X335210Y31803I1394J13846*
G01*
X305260Y31803D01*
G75*
D01*
G02X305030Y31805I6J13917*
G01*
G74*
D01*
G02X304800Y31803I236J13914*
G01*
X303405Y31803D01*
X289241Y17639D01*
G75*
D01*
G02X269559Y37321I-9841J9841*
G01*
X287799Y55561D01*
G75*
D01*
G02X297647Y59637I9841J-9841*
G01*
X304800Y59637D01*
G74*
D01*
G02X305030Y59635I6J13917*
G01*
G75*
D01*
G02X305260Y59637I236J-13914*
G01*
X329445Y59637D01*
X336603Y66795D01*
X336603Y71477D01*
G75*
D01*
G02X364543Y84463I14466J5427*
G01*
X364543Y95835D01*
X359995Y100383D01*
X359551Y100383D01*
G75*
D01*
G02X339143Y123118I-8481J12914*
G01*
X339143Y168675D01*
G75*
D01*
G02X366394Y180491I11931J9816*
G01*
G74*
D01*
G02X366977Y176507I13333J3986*
G01*
X366977Y128164D01*
G74*
D01*
G02X375611Y124131I1217J13864*
G01*
X388291Y111451D01*
G74*
D01*
G02X392377Y101600I9831J9851*
G01*
X392377Y78280D01*
G75*
D01*
G02X365852Y72387I-13917J-1*
G01*
G74*
D01*
G02X364437Y69138I14779J4504*
G01*
X364437Y19455D01*
G75*
D01*
G02X365580Y6381I-13364J-7755*
G01*
X302692Y181223D02*
G75*
D01*
G03X302692Y175763I3508J-2730*
G01*
X293317Y175763D01*
X293317Y179655D01*
X294885Y181223D01*
X302692Y181223D01*
G54D12*
X20320Y152400D02*
X20320Y20320D01*
X43180Y175260D02*
X20320Y152400D01*
X378460Y208280D02*
X302260Y208280D01*
X279400Y185420D01*
X378460Y208280D02*
X416560Y170180D01*
X416560Y167640D01*
X452120Y129540D02*
X452120Y149860D01*
X472440Y170180D01*
X546100Y167340D02*
X543260Y170180D01*
X472440Y170180D01*
X416100Y167340D02*
X454500Y205740D01*
X561340Y205740D01*
X582420Y184660D02*
X561340Y205740D01*
X582420Y70876D02*
X582420Y184660D01*
X43180Y175260D02*
X83820Y175260D01*
X93080Y184520D02*
X83820Y175260D01*
X64516Y200660D02*
X72136Y208280D01*
X175260Y208280D01*
X93080Y184520D02*
X158380Y184520D01*
X175260Y167640D01*
X610060Y20620D02*
X610060Y43236D01*
X582420Y70876D01*
X147320Y127140D02*
X147320Y63500D01*
X147320Y61947D02*
X147320Y20320D01*
X248920Y47487D02*
X248920Y125600D01*
X184960Y27940D02*
X229373Y27940D01*
X248920Y47487D02*
X229373Y27940D01*
X175260Y37640D02*
X184960Y27940D01*
X351073Y178493D02*
X353060Y176507D01*
X353060Y114300D01*
X365760Y114300D02*
X353060Y114300D01*
X365760Y114300D02*
X378460Y101600D01*
X378460Y78280D01*
X305260Y45720D02*
X335210Y45720D01*
X350520Y61030D01*
X350520Y76340D02*
X350520Y12700D01*
X452120Y127140D02*
X452120Y63500D01*
X480360Y20320D02*
X543313Y20320D01*
X553720Y30727D01*
X553720Y127140D01*
X175260Y167640D02*
X185420Y157480D01*
X279400Y157480D01*
X279400Y182880D02*
X279400Y157480D01*
X279400Y27480D02*
X297640Y45720D01*
X304800Y45720D01*
G54D13*
X-6350Y-6350D02*
X-6350Y17920D01*
X-6350Y-6350D02*
X59920Y-6350D01*
X656350Y-6350D02*
X590080Y-6350D01*
X656350Y-6350D02*
X656350Y17920D01*
X656350Y236350D02*
X656350Y212080D01*
X656350Y236350D02*
X590080Y236350D01*
X-6350Y236350D02*
X59920Y236350D01*
X-6350Y236350D02*
X-6350Y212080D01*
X-56350Y-6350D02*
X-156350Y-6350D01*
X-106350Y-56350D02*
X-106350Y43650D01*
X-143850Y-6350D02*
G75*
D01*
G02X-143850Y-6350I37500J0*
G01*
X706350Y-6350D02*
X806350Y-6350D01*
X756350Y-56350D02*
X756350Y43650D01*
X718850Y-6350D02*
G75*
D01*
G02X718850Y-6350I37500J0*
G01*
X743850Y-6350D02*
G75*
D01*
G02X743850Y-6350I12500J0*
G01*
X-56350Y236350D02*
X-156350Y236350D01*
X-106350Y186350D02*
X-106350Y286350D01*
X-143850Y236350D02*
G75*
D01*
G02X-143850Y236350I37500J0*
G01*
X-131350Y236350D02*
G75*
D01*
G02X-131350Y236350I25000J0*
G01*
X-118850Y236350D02*
G75*
D01*
G02X-118850Y236350I12500J0*
G01*
G54D14*
X305260Y208280D03*
X175260Y208280D03*
X150320Y20320D03*
X20320Y20320D03*
X480060Y20620D03*
X610060Y20620D03*
X279400Y27480D03*
X279400Y157480D03*
X175260Y37640D03*
X175260Y167640D03*
X378460Y78280D03*
X378460Y208280D03*
X546100Y167340D03*
X416100Y167340D03*
G54D15*
X351073Y76893D03*
X306200Y76893D03*
X351073Y11700D03*
X306200Y11700D03*
X351073Y178493D03*
X306200Y178493D03*
X351073Y113300D03*
X306200Y113300D03*
X147873Y127693D03*
X103000Y127693D03*
X147873Y62500D03*
X103000Y62500D03*
X249473Y126153D03*
X204600Y126153D03*
X249473Y60960D03*
X204600Y60960D03*
X452673Y127693D03*
X407800Y127693D03*
X452673Y62500D03*
X407800Y62500D03*
X554273Y127693D03*
X509400Y127693D03*
X554273Y62500D03*
X509400Y62500D03*
G54D16*
X64516Y175260D03*
X64516Y200660D03*
G54D17*
X64516Y149860D03*
G54D18*
X61871Y147215D02*
X67161Y147215D01*
X67161Y152505D01*
X61871Y152505D01*
X61871Y147215D01*D02*
G54D19*
X112300Y159520D03*
X112300Y184520D03*

M02*
